<svg width="75" height="12" viewBox="0 0 75 12" fill="none" xmlns="http://www.w3.org/2000/svg">
<path fill-rule="evenodd" clip-rule="evenodd" d="M9.25503 1.81822C9.25503 1.42401 9.36317 1.09938 9.57905 0.843924C9.79534 0.5886 10.112 0.460938 10.5292 0.460938C10.9466 0.460938 11.267 0.5886 11.4905 0.843924C11.7141 1.09938 11.8258 1.42401 11.8258 1.81822V5.25481C11.8258 6.1594 11.7289 6.97678 11.5352 7.70643C11.3414 8.43622 11.0284 9.10377 10.5963 9.7095C10.1642 10.3151 9.55314 10.7858 8.76326 11.1214C7.97339 11.457 7.03445 11.6247 5.94646 11.6247C3.84507 11.6247 2.32872 11.0447 1.39702 9.88457C0.465581 8.72426 0 7.19565 0 5.29861V1.81822C0 1.42401 0.115373 1.09938 0.34639 0.843924C0.577681 0.5886 0.901706 0.460938 1.31901 0.460938C1.75118 0.460938 2.08639 0.5886 2.32491 0.843924C2.56342 1.09938 2.68262 1.42401 2.68262 1.81822V5.40811C2.68262 7.991 3.77784 9.28244 5.96869 9.28244C8.15954 9.28244 9.25503 7.97645 9.25503 5.36418V1.81822Z" fill="#FF6170"/>
<path fill-rule="evenodd" clip-rule="evenodd" d="M58.2016 5.30611C58.6845 5.06774 58.9262 4.68409 58.9262 4.15528C58.9262 3.21918 57.9927 2.75113 56.1261 2.75113C55.7868 2.75113 54.0151 2.77704 53.3623 2.82912V5.61178C53.7671 5.64636 55.4864 5.66372 55.9695 5.66372C56.9747 5.66372 57.7187 5.54447 58.2016 5.30611ZM50.7793 1.85644C50.7793 1.20424 51.1695 0.809637 51.9495 0.67236C52.7716 0.523599 54.8786 0.449219 56.1464 0.449219C59.7549 0.449219 61.5591 1.63917 61.5591 4.01895C61.5591 4.83126 61.3224 5.51778 60.8485 6.07837C60.375 6.63896 59.7177 7.0739 58.7688 7.29397L61.0492 9.51924C61.4586 9.97514 61.6349 10.7522 60.7392 11.1811C60.0051 11.5327 59.1963 11.2851 58.6051 10.6005L55.9027 7.63996C55.7218 7.66293 53.6974 7.65158 53.321 7.60578V10.2745C53.321 10.5834 53.2099 10.8351 52.9869 11.0296C52.7639 11.224 52.5291 11.3213 52.1389 11.3213C51.735 11.3213 51.3192 11.224 51.1033 11.0296C50.8873 10.8351 50.7793 10.5834 50.7793 10.2745V1.85644Z" fill="#FF6170"/>
<path fill-rule="evenodd" clip-rule="evenodd" d="M72.4289 1.81822C72.4289 1.42401 72.537 1.09938 72.7529 0.843924C72.9692 0.5886 73.2858 0.460938 73.703 0.460938C74.1204 0.460938 74.4408 0.5886 74.6643 0.843924C74.888 1.09938 74.9996 1.42401 74.9996 1.81822V5.25481C74.9996 6.1594 74.9028 6.97678 74.7092 7.70643C74.5152 8.43622 74.2023 9.10377 73.7701 9.7095C73.3381 10.3151 72.727 10.7858 71.9371 11.1214C71.1472 11.457 70.2083 11.6247 69.1203 11.6247C67.0189 11.6247 65.5026 11.0447 64.5708 9.88457C63.6394 8.72426 63.1738 7.19565 63.1738 5.29861V1.81822C63.1738 1.42401 63.2892 1.09938 63.5202 0.843924C63.7515 0.5886 64.0755 0.460938 64.4928 0.460938C64.925 0.460938 65.2602 0.5886 65.4987 0.843924C65.7373 1.09938 65.8564 1.42401 65.8564 1.81822V5.40811C65.8564 7.991 66.9517 9.28244 69.1425 9.28244C71.3334 9.28244 72.4289 7.97645 72.4289 5.36418V1.81822Z" fill="#FF6170"/>
<path fill-rule="evenodd" clip-rule="evenodd" d="M19.5254 11.6248C17.5398 11.6248 15.9866 11.1433 14.8651 10.1802C13.7435 9.21715 13.1826 7.86721 13.1826 6.13069C13.1826 4.37934 13.7666 2.99669 14.9338 1.98233C16.1014 0.967981 17.6962 0.460938 19.7185 0.460938C21.2813 0.460938 22.4671 0.665117 23.2759 1.07374C24.0664 1.46781 24.2963 1.95696 23.9653 2.54052C23.6529 3.06599 23.0463 3.2886 22.1454 3.06987C21.2078 2.851 20.1607 2.67179 19.5359 2.67179C18.4694 2.67179 17.6332 2.97839 17.0262 3.5912C16.4195 4.20414 16.1163 5.0505 16.1163 6.13069C16.1163 7.15212 16.4332 7.95481 17.0678 8.53837C17.7019 9.1222 18.5339 9.41411 19.5634 9.41411C20.2989 9.41411 21.4468 9.2098 22.4761 8.80104C23.3587 8.46546 23.9839 8.53837 24.3514 9.01991C24.7744 9.57449 24.5906 10.107 23.8 10.6181C22.7336 11.2893 21.3089 11.6248 19.5254 11.6248Z" fill="#FF6170"/>
<path fill-rule="evenodd" clip-rule="evenodd" d="M41.2905 0.73622C41.5513 0.495585 41.9054 0.375 42.3523 0.375C42.7995 0.375 43.1574 0.495585 43.4256 0.73622C43.6937 0.977122 43.8279 1.30175 43.8279 1.71051C43.8279 2.13369 43.6937 2.4618 43.4256 2.69535C43.1574 2.92891 42.7995 3.04576 42.3523 3.04576C41.9054 3.04576 41.5513 2.93252 41.2905 2.7063C41.0298 2.48009 40.8994 2.14811 40.8994 1.71051C40.8994 1.30175 41.0298 0.977122 41.2905 0.73622Z" fill="#FF6170"/>
<path fill-rule="evenodd" clip-rule="evenodd" d="M38.5664 0.822157C38.3429 0.581255 38.03 0.460938 37.6275 0.460938C37.2251 0.460938 36.9159 0.581255 36.6998 0.822157C36.4837 1.06279 36.3755 1.36592 36.3755 1.73062V4.69662H28.8144V1.73062C28.8144 1.36592 28.7027 1.06279 28.4789 0.822157C28.2556 0.581255 27.9426 0.460938 27.54 0.460938C27.1377 0.460938 26.8284 0.581255 26.6124 0.822157C26.3962 1.06279 26.2881 1.36592 26.2881 1.73062V10.1363C26.2881 10.5012 26.3962 10.8041 26.6124 11.0447C26.8284 11.2856 27.1377 11.406 27.54 11.406C27.9426 11.406 28.2556 11.2856 28.4789 11.0447C28.7027 10.8041 28.8144 10.5012 28.8144 10.1363V7.17028H36.3755V10.1363C36.3755 10.5012 36.4837 10.8041 36.6998 11.0447C36.9159 11.2856 37.2251 11.406 37.6275 11.406C38.03 11.406 38.3429 11.2856 38.5664 11.0447C38.7902 10.8041 38.9019 10.5012 38.9019 10.1363V1.73062C38.9019 1.36592 38.7902 1.06279 38.5664 0.822157Z" fill="#FF6170"/>
<path fill-rule="evenodd" clip-rule="evenodd" d="M41.1006 5.58511C41.1006 5.22028 41.2087 4.91728 41.4249 4.67665C41.6409 4.43575 41.9501 4.31543 42.3525 4.31543C42.7551 4.31543 43.0679 4.43575 43.2914 4.67665C43.5151 4.91728 43.6268 5.22028 43.6268 5.58511V10.1361C43.6268 10.501 43.5151 10.8039 43.2914 11.0445C43.0679 11.2854 42.7551 11.4058 42.3525 11.4058C41.9501 11.4058 41.6409 11.2854 41.4249 11.0445C41.2087 10.8039 41.1006 10.501 41.1006 10.1361V5.58511Z" fill="#FF6170"/>
<path fill-rule="evenodd" clip-rule="evenodd" d="M46.0512 8.8121C46.3271 8.51311 46.7032 8.36328 47.1802 8.36328C47.6571 8.36328 48.0372 8.51311 48.3203 8.8121C48.6034 9.11136 48.7451 9.47258 48.7451 9.89576C48.7451 10.3336 48.6072 10.6946 48.3314 10.9792C48.0559 11.2637 47.672 11.4061 47.1802 11.4061C46.6883 11.4061 46.3084 11.2637 46.04 10.9792C45.7718 10.6946 45.6377 10.3336 45.6377 9.89576C45.6377 9.47258 45.7756 9.11136 46.0512 8.8121Z" fill="#FF6170"/>
</svg>
